<?xml version="1.0" encoding="iso-8859-1"?>
<!-- Generator: Adobe Illustrator 16.0.0, SVG Export Plug-In . SVG Version: 6.00 Build 0)  -->
<!DOCTYPE svg PUBLIC "-//W3C//DTD SVG 1.1//EN" "http://www.w3.org/Graphics/SVG/1.1/DTD/svg11.dtd">
<svg version="1.1" id="Capa_1" xmlns="http://www.w3.org/2000/svg" xmlns:xlink="http://www.w3.org/1999/xlink" x="0px" y="0px"
	 width="30px" height="30px" viewBox="0 0 30 30" style="enable-background:new 0 0 30 30;" xml:space="preserve">
<g>
	<g>
		<g>
			<g>
				<polygon points="21.887,21.487 7.152,21.487 2.218,23.462 2.218,11.062 4.085,11.062 4.085,8.844 0,8.844 0,23.706 0,26.737 
					7.579,23.706 24.105,23.706 24.105,21.333 21.887,20.446 				"/>
				<path d="M5.895,3.263v3.771v2.218v8.874h16.526l1.274,0.51l2.219,0.887L30,21.157v-3.031V3.263H5.895z M27.782,17.881
					l-1.867-0.747l-2.218-0.887l-0.848-0.34H8.113V9.253V7.034V5.482h19.669V17.881z"/>
			</g>
		</g>
		<g>
			<path d="M13.152,8.853c-1.018,0-1.843,0.825-1.843,1.843s0.825,1.843,1.843,1.843s1.843-0.825,1.843-1.843
				S14.17,8.853,13.152,8.853z M13.152,11.72c-0.564,0-1.024-0.459-1.024-1.024s0.459-1.023,1.024-1.023s1.024,0.459,1.024,1.023
				S13.717,11.72,13.152,11.72z"/>
			<path d="M18.203,8.853c-1.018,0-1.844,0.825-1.844,1.843s0.826,1.843,1.844,1.843s1.843-0.825,1.843-1.843
				S19.221,8.853,18.203,8.853z M18.203,11.72c-0.564,0-1.023-0.459-1.023-1.024s0.459-1.023,1.023-1.023s1.023,0.459,1.023,1.023
				S18.768,11.72,18.203,11.72z"/>
			<path d="M23.254,8.853c-1.018,0-1.843,0.825-1.843,1.843s0.825,1.843,1.843,1.843s1.844-0.825,1.844-1.843
				S24.271,8.853,23.254,8.853z M23.254,11.72c-0.564,0-1.023-0.46-1.023-1.024s0.459-1.023,1.023-1.023s1.023,0.459,1.023,1.023
				S23.818,11.72,23.254,11.72z"/>
		</g>
	</g>
</g>
<g>
</g>
<g>
</g>
<g>
</g>
<g>
</g>
<g>
</g>
<g>
</g>
<g>
</g>
<g>
</g>
<g>
</g>
<g>
</g>
<g>
</g>
<g>
</g>
<g>
</g>
<g>
</g>
<g>
</g>
</svg>
