<?xml version="1.0" encoding="iso-8859-1"?>
<!-- Generator: Adobe Illustrator 16.0.0, SVG Export Plug-In . SVG Version: 6.00 Build 0)  -->
<!DOCTYPE svg PUBLIC "-//W3C//DTD SVG 1.1//EN" "http://www.w3.org/Graphics/SVG/1.1/DTD/svg11.dtd">
<svg version="1.1" id="Capa_1" xmlns="http://www.w3.org/2000/svg" xmlns:xlink="http://www.w3.org/1999/xlink" x="0px" y="0px"
	 width="30px" height="30px" viewBox="0 0 30 30" style="enable-background:new 0 0 30 30;" xml:space="preserve">
<g>
	<g>
		<path d="M0,2.762v22.145l21.689-1.041L30,27.238v-3.772V4.969L0,2.762z M27.659,23.268l-5.476-2.33L3.246,21.504V6.247L27.659,7.6
			V23.268z"/>
		<g>
			<path d="M12.038,14.142c0,1.08-0.821,1.955-1.846,1.954c-1.036,0-1.886-0.895-1.886-1.999c0-1.103,0.85-1.978,1.886-1.954
				C11.216,12.168,12.038,13.062,12.038,14.142z"/>
			<path d="M18.062,14.213c0,1.042-0.765,1.886-1.717,1.885c-0.963,0-1.751-0.863-1.751-1.926s0.789-1.907,1.751-1.884
				C17.298,12.31,18.062,13.172,18.062,14.213z"/>
			<path d="M23.591,14.279c0,1.006-0.713,1.822-1.603,1.821c-0.898,0-1.635-0.833-1.635-1.86s0.736-1.842,1.635-1.821
				C22.878,12.439,23.591,13.272,23.591,14.279z"/>
		</g>
	</g>
</g>
<g>
</g>
<g>
</g>
<g>
</g>
<g>
</g>
<g>
</g>
<g>
</g>
<g>
</g>
<g>
</g>
<g>
</g>
<g>
</g>
<g>
</g>
<g>
</g>
<g>
</g>
<g>
</g>
<g>
</g>
</svg>
