<svg id="Layer_4" enable-background="new 0 0 24 24" height="512" viewBox="0 0 24 24" width="512" xmlns="http://www.w3.org/2000/svg"><g><g><path d="m19 13h-7c-.552 0-1-.448-1-1s.448-1 1-1h7c.552 0 1 .448 1 1s-.448 1-1 1z"/></g></g><g><g><path d="m23 18h-11c-.552 0-1-.448-1-1s.448-1 1-1h11c.552 0 1 .448 1 1s-.448 1-1 1z"/></g></g><g><g><path d="m19 23h-7c-.552 0-1-.448-1-1s.448-1 1-1h7c.552 0 1 .448 1 1s-.448 1-1 1z"/></g></g><path d="m22.25 2h-9.5c-.965 0-1.75.785-1.75 1.75v2.5c0 .965.785 1.75 1.75 1.75h9.5c.965 0 1.75-.785 1.75-1.75v-2.5c0-.965-.785-1.75-1.75-1.75z"/><path d="m8.761 4.45-3.5-3.25c-.219-.203-.537-.255-.811-.138-.273.12-.45.39-.45.688v2.25h-3c-.553 0-1 .448-1 1s.447 1 1 1h3v2.25c0 .298.177.568.45.688.097.041.198.062.3.062.186 0 .369-.069.511-.2l3.5-3.25c.152-.142.239-.342.239-.55s-.087-.408-.239-.55z"/></svg>