<?xml version="1.0" encoding="iso-8859-1"?>
<!-- Generator: Adobe Illustrator 19.0.0, SVG Export Plug-In . SVG Version: 6.00 Build 0)  -->
<svg version="1.1" id="Capa_1" xmlns="http://www.w3.org/2000/svg" xmlns:xlink="http://www.w3.org/1999/xlink" x="0px" y="0px"
	 viewBox="0 0 402.773 402.773" style="enable-background:new 0 0 402.773 402.773;" xml:space="preserve">
<polygon style="fill:#EA3457;" points="351.573,129.707 51.2,129.707 71.68,95.573 331.093,95.573 "/>
<path style="fill:#602F75;" d="M351.573,136.533H51.2c-2.459,0-4.729-1.319-5.939-3.459c-1.213-2.147-1.179-4.774,0.087-6.88
	l20.48-34.133c1.232-2.055,3.456-3.314,5.852-3.314h259.413c2.396,0,4.62,1.26,5.854,3.313l20.48,34.133
	c1.266,2.106,1.3,4.733,0.087,6.88C356.302,135.214,354.032,136.533,351.573,136.533z M63.256,122.88h276.26l-12.29-20.48H75.547
	L63.256,122.88z"/>
<polyline style="fill:#FFFFFF;" points="353.674,170.665 365.227,395.947 37.547,395.947 51.2,129.707 351.573,129.707 "/>
<path style="fill:#602F75;" d="M365.227,402.773H37.547c-1.871,0-3.661-0.766-4.949-2.127c-1.287-1.353-1.963-3.18-1.867-5.047
	l13.653-266.24c0.186-3.633,3.183-6.48,6.816-6.48h300.373c3.77,0,6.827,3.053,6.827,6.827c0,3.773-3.057,6.827-6.827,6.827H57.687
	L44.733,389.12H358.04l-11.184-218.107c-0.193-3.76,2.703-6.973,6.467-7.166c3.82-0.119,6.977,2.707,7.166,6.473l11.554,225.28
	c0.097,1.867-0.58,3.693-1.867,5.047C368.887,402.007,367.097,402.773,365.227,402.773z"/>
<rect x="95.573" y="136.533" style="fill:#FFE600;" width="109.227" height="252.587"/>
<circle style="fill:#FFFFFF;" cx="252.587" cy="170.667" r="13.653"/>
<path style="fill:#602F75;" d="M252.587,191.147c-11.293,0-20.48-9.187-20.48-20.48s9.187-20.48,20.48-20.48
	c11.293,0,20.48,9.187,20.48,20.48S263.88,191.147,252.587,191.147z M252.587,163.84c-3.763,0-6.827,3.06-6.827,6.827
	s3.063,6.827,6.827,6.827c3.763,0,6.827-3.06,6.827-6.827S256.35,163.84,252.587,163.84z"/>
<circle style="fill:#FFFFFF;" cx="150.187" cy="170.667" r="13.653"/>
<g>
	<path style="fill:#602F75;" d="M150.187,191.147c-11.293,0-20.48-9.187-20.48-20.48s9.187-20.48,20.48-20.48
		c11.293,0,20.48,9.187,20.48,20.48S161.48,191.147,150.187,191.147z M150.187,163.84c-3.763,0-6.827,3.06-6.827,6.827
		s3.063,6.827,6.827,6.827c3.763,0,6.827-3.06,6.827-6.827S153.95,163.84,150.187,163.84z"/>
	<path style="fill:#602F75;" d="M252.587,102.4h-102.4c-3.77,0-6.827-3.053-6.827-6.827V58.027C143.36,26.033,169.39,0,201.387,0
		s58.027,26.033,58.027,58.027v37.547C259.413,99.347,256.357,102.4,252.587,102.4z M157.013,88.747h88.747v-30.72
		c0-24.467-19.907-44.373-44.373-44.373s-44.373,19.907-44.373,44.373V88.747z"/>
</g>
<path style="fill:#602F75;" d="M201.387,273.067c-31.997,0-58.027-26.033-58.027-58.027v-37.547c0-3.773,3.057-6.827,6.827-6.827
	c3.77,0,6.827,3.053,6.827,6.827v37.547c0,24.467,19.907,44.373,44.373,44.373s44.373-19.907,44.373-44.373v-35.734
	c-0.171-0.573-0.263-1.186-0.263-1.812c0-3.773,2.794-6.827,6.564-6.827h0.526c3.77,0,6.827,3.053,6.827,6.827v37.547
	C259.413,247.033,233.383,273.067,201.387,273.067z"/>
<g>
</g>
<g>
</g>
<g>
</g>
<g>
</g>
<g>
</g>
<g>
</g>
<g>
</g>
<g>
</g>
<g>
</g>
<g>
</g>
<g>
</g>
<g>
</g>
<g>
</g>
<g>
</g>
<g>
</g>
</svg>
